HIERARCHY
ROOT hip
{
  OFFSET 0.00112043 5.09927 -9.65472
  CHANNELS 6 Xposition Yposition Zposition Zrotation Xrotation Yrotation
  JOINT abdomen
  {
    OFFSET 0 -1.186 -1.5018
    CHANNELS 3 Zrotation Xrotation Yrotation
    JOINT abdomen2
    {
      OFFSET 0 9.964 0.2134
      CHANNELS 3 Zrotation Xrotation Yrotation
      JOINT chest
      {
        OFFSET 0 13.134 -3.2573
        CHANNELS 3 Zrotation Xrotation Yrotation
        JOINT neck
        {
          OFFSET 0 20.686 -1.6905
          CHANNELS 3 Zrotation Xrotation Yrotation
          JOINT head
          {
            OFFSET 0 7.238 -0.1237
            CHANNELS 3 Zrotation Xrotation Yrotation
            End Site
            {
              OFFSET 0 0 0
            }
          }
        }
        JOINT lCollar
        {
          OFFSET 1.7069 20.075 5.0056
          CHANNELS 3 Zrotation Xrotation Yrotation
          JOINT lShldr
          {
            OFFSET 13.6458 -0.047 -4.849
            CHANNELS 3 Zrotation Xrotation Yrotation
            JOINT lForeArm
            {
              OFFSET 28.3255 -0.9759 2.2888
              CHANNELS 3 Zrotation Xrotation Yrotation
              JOINT lHand
              {
                OFFSET 22.1583 -0.53 10.8316
                CHANNELS 3 Zrotation Xrotation Yrotation
                JOINT lThumb1
                {
                  OFFSET 0.786 0.112 2.5817
                  CHANNELS 3 Zrotation Xrotation Yrotation
                  JOINT lThumb2
                  {
                    OFFSET 0.3601 -0.878 4.2331
                    CHANNELS 3 Zrotation Xrotation Yrotation
                    JOINT lThumb2_End
                    {
                      OFFSET 1.8127 -1.216 2.2227
                      CHANNELS 3 Zrotation Xrotation Yrotation
                      End Site
                      {
                        OFFSET 0.0181 -0.0122 0.0222
                      }
                    }
                  }
                }
                JOINT lCarpal1
                {
                  OFFSET 0.9571 1.114 1.7695
                  CHANNELS 3 Zrotation Xrotation Yrotation
                  JOINT lIndex1
                  {
                    OFFSET 4.1246 0.487 4.1451
                    CHANNELS 3 Zrotation Xrotation Yrotation
                    JOINT lIndex2
                    {
                      OFFSET 3.4052 -1.454 2.7682
                      CHANNELS 3 Zrotation Xrotation Yrotation
                      JOINT lIndex2_End
                      {
                        OFFSET 1.4531 -1.795 1.2713
                        CHANNELS 3 Zrotation Xrotation Yrotation
                        End Site
                        {
                          OFFSET 0.0145 -0.0179 0.0127
                        }
                      }
                    }
                  }
                  JOINT lMid1
                  {
                    OFFSET 5.6954 0.21 2.1184
                    CHANNELS 3 Zrotation Xrotation Yrotation
                    JOINT lMid2
                    {
                      OFFSET 3.9766 -1.54 2.3863
                      CHANNELS 3 Zrotation Xrotation Yrotation
                      JOINT lMid2_End
                      {
                        OFFSET 1.4042 -1.926 1.125
                        CHANNELS 3 Zrotation Xrotation Yrotation
                        End Site
                        {
                          OFFSET 0.014 -0.0193 0.0113
                        }
                      }
                    }
                  }
                }
                JOINT lCarpal2
                {
                  OFFSET 2.0956 0.66 -0.3894
                  CHANNELS 3 Zrotation Xrotation Yrotation
                  JOINT lRing1
                  {
                    OFFSET 5.0395 -0.09 2.4971
                    CHANNELS 3 Zrotation Xrotation Yrotation
                    JOINT lRing2
                    {
                      OFFSET 3.7921 -1.552 1.4806
                      CHANNELS 3 Zrotation Xrotation Yrotation
                      JOINT lRing2_End
                      {
                        OFFSET 1.4655 -1.808 0.9609
                        CHANNELS 3 Zrotation Xrotation Yrotation
                        End Site
                        {
                          OFFSET 0.0147 -0.0181 0.0096
                        }
                      }
                    }
                  }
                  JOINT lPinky1
                  {
                    OFFSET 4.9141 -1.269 0.3591
                    CHANNELS 3 Zrotation Xrotation Yrotation
                    JOINT lPinky2
                    {
                      OFFSET 3.1477 -1.685 0.8462
                      CHANNELS 3 Zrotation Xrotation Yrotation
                      JOINT lPinky2_End
                      {
                        OFFSET 0.8055 -1.585 0.7955
                        CHANNELS 3 Zrotation Xrotation Yrotation
                        End Site
                        {
                          OFFSET 0.0081 -0.0158 0.008
                        }
                      }
                    }
                  }
                }
              }
            }
          }
        }
        JOINT rCollar
        {
          OFFSET -1.7069 20.075 5.0056
          CHANNELS 3 Zrotation Xrotation Yrotation
          JOINT rShldr
          {
            OFFSET -13.6458 -0.047 -4.849
            CHANNELS 3 Zrotation Xrotation Yrotation
            JOINT rForeArm
            {
              OFFSET -28.3255 -0.9759 2.2888
              CHANNELS 3 Zrotation Xrotation Yrotation
              JOINT rHand
              {
                OFFSET -22.1583 -0.53 10.8316
                CHANNELS 3 Zrotation Xrotation Yrotation
                JOINT rThumb1
                {
                  OFFSET -0.786 0.112 2.5817
                  CHANNELS 3 Zrotation Xrotation Yrotation
                  JOINT rThumb2
                  {
                    OFFSET -0.3601 -0.878 4.2331
                    CHANNELS 3 Zrotation Xrotation Yrotation
                    JOINT rThumb2_End
                    {
                      OFFSET -1.8127 -1.216 2.2227
                      CHANNELS 3 Zrotation Xrotation Yrotation
                      End Site
                      {
                        OFFSET -0.0181 -0.0122 0.0222
                      }
                    }
                  }
                }
                JOINT rCarpal1
                {
                  OFFSET -0.9571 1.114 1.7695
                  CHANNELS 3 Zrotation Xrotation Yrotation
                  JOINT rIndex1
                  {
                    OFFSET -4.1246 0.487 4.1451
                    CHANNELS 3 Zrotation Xrotation Yrotation
                    JOINT rIndex2
                    {
                      OFFSET -3.4052 -1.454 2.7682
                      CHANNELS 3 Zrotation Xrotation Yrotation
                      JOINT rIndex2_End
                      {
                        OFFSET -1.4531 -1.795 1.2713
                        CHANNELS 3 Zrotation Xrotation Yrotation
                        End Site
                        {
                          OFFSET -0.0145 -0.018 0.0127
                        }
                      }
                    }
                  }
                  JOINT rMid1
                  {
                    OFFSET -5.6954 0.21 2.1184
                    CHANNELS 3 Zrotation Xrotation Yrotation
                    JOINT rMid2
                    {
                      OFFSET -3.9766 -1.54 2.3863
                      CHANNELS 3 Zrotation Xrotation Yrotation
                      JOINT rMid2_End
                      {
                        OFFSET -1.4042 -1.926 1.125
                        CHANNELS 3 Zrotation Xrotation Yrotation
                        End Site
                        {
                          OFFSET -0.014 -0.0193 0.0113
                        }
                      }
                    }
                  }
                }
                JOINT rCarpal2
                {
                  OFFSET -2.0956 0.66 -0.3894
                  CHANNELS 3 Zrotation Xrotation Yrotation
                  JOINT rRing1
                  {
                    OFFSET -5.0395 -0.09 2.4971
                    CHANNELS 3 Zrotation Xrotation Yrotation
                    JOINT rRing2
                    {
                      OFFSET -3.7921 -1.552 1.4806
                      CHANNELS 3 Zrotation Xrotation Yrotation
                      JOINT rRing2_End
                      {
                        OFFSET -1.4655 -1.808 0.9609
                        CHANNELS 3 Zrotation Xrotation Yrotation
                        End Site
                        {
                          OFFSET -0.0147 -0.0181 0.0096
                        }
                      }
                    }
                  }
                  JOINT rPinky1
                  {
                    OFFSET -4.9141 -1.269 0.3592
                    CHANNELS 3 Zrotation Xrotation Yrotation
                    JOINT rPinky2
                    {
                      OFFSET -3.1477 -1.685 0.8462
                      CHANNELS 3 Zrotation Xrotation Yrotation
                      JOINT rPinky2_End
                      {
                        OFFSET -0.8055 -1.585 0.7955
                        CHANNELS 3 Zrotation Xrotation Yrotation
                        End Site
                        {
                          OFFSET -0.0081 -0.0158 0.008
                        }
                      }
                    }
                  }
                }
              }
            }
          }
        }
      }
    }
  }
  JOINT lThigh
  {
    OFFSET 8.367 -8.2066 0.5982
    CHANNELS 3 Zrotation Xrotation Yrotation
    JOINT lShin
    {
      OFFSET 2.1923 -43.463 -0.4932
      CHANNELS 3 Zrotation Xrotation Yrotation
      JOINT lFoot
      {
        OFFSET 0.7333 -45.8593 -2.6451
        CHANNELS 3 Zrotation Xrotation Yrotation
        End Site
        {
          OFFSET 2.6618 -4.2699 12.3931
        }
      }
    }
  }
  JOINT rThigh
  {
    OFFSET -8.367 -8.2066 0.5982
    CHANNELS 3 Zrotation Xrotation Yrotation
    JOINT rShin
    {
      OFFSET -2.1923 -43.463 -0.4931
      CHANNELS 3 Zrotation Xrotation Yrotation
      JOINT rFoot
      {
        OFFSET -0.7333 -45.8593 -2.6451
        CHANNELS 3 Zrotation Xrotation Yrotation
        End Site
        {
          OFFSET -2.6618 -4.2699 12.3931
        }
      }
    }
  }
}
MOTION
Frames:	6
Frame Time:	0.0333333
0 91.7903 2.51682 0 0 -0 0 0 -0 0 0 -0 0 0 -0 0 0 -0 0 0 -0 0 0 -0 1.66051 0.0835086 5.75766 -0.0175111 0.895433 15.7816 7.95139e-016 -1.98785e-016 -0 5.46658e-016 -3.97569e-016 -0 5.96354e-016 0 -0 3.97569e-016 1.98785e-016 9.54166e-015 1.49089e-016 -3.97569e-016 -0 6.4605e-016 0 3.18055e-015 5.96354e-016 0 3.18055e-015 8.94531e-016 -1.98785e-016 6.36111e-015 6.4605e-016 0 3.18055e-015 5.96354e-016 0 3.18055e-015 8.94531e-016 -1.98785e-016 6.36111e-015 1.49089e-016 -3.97569e-016 -0 6.4605e-016 0 3.18055e-015 5.96354e-016 0 3.18055e-015 8.94531e-016 -1.98785e-016 6.36111e-015 6.4605e-016 0 3.18055e-015 5.96354e-016 0 3.18055e-015 8.94531e-016 -1.98785e-016 6.36111e-015 0 0 -0 -1.4496 0.0636048 -5.0245 -1.74811 1.20616 -16.8394 -1.19271e-015 1.98785e-016 -3.18055e-015 -3.97569e-016 1.98785e-016 -3.18055e-015 -2.98177e-016 1.98785e-016 -3.18055e-015 -2.98177e-016 3.97569e-016 -0 4.96962e-016 0 -6.36111e-015 -9.93923e-017 3.97569e-016 -0 -8.94531e-016 5.96354e-016 -0 -3.97569e-016 3.97569e-016 -0 -9.93923e-017 3.97569e-016 -0 -8.94531e-016 5.96354e-016 -0 -3.97569e-016 3.97569e-016 -0 4.96962e-016 0 -6.36111e-015 -9.93923e-017 3.97569e-016 -0 -8.94531e-016 5.96354e-016 -0 -3.97569e-016 3.97569e-016 -0 -9.93923e-017 3.97569e-016 -0 -8.94531e-016 5.96354e-016 -0 -3.97569e-016 3.97569e-016 -0 -4.66111 -0.998717 0.12318 0.00986924 1.54847 0.176523 4.65186 -0.572283 -0.254274 4.66111 -0.998765 -0.123176 -0.00986867 1.54869 -0.176537 -4.65186 -0.572453 0.25427 
2.14078 75.3219 -9.39353 0 0 -0 -0.00303759 0.418092 -0.0227013 -0.00590975 0.836184 -0.0453823 -0.00590975 0.836184 -0.0453823 -0.0320922 -0.0157795 0.0361352 3.47762e-009 -2.13406e-007 -2.72571e-011 -2.0343 -0.0495799 2.72967e-006 -4.40454 -0.316051 -4.14929 -2.72099 -15.5072 12.0637 -1.65489 0.653602 -0.0207675 -3.77691e-015 1.59028e-015 -7.95139e-016 -2.78299e-015 3.18055e-015 -7.95139e-016 -4.37326e-015 1.59028e-015 -3.97569e-015 -3.37934e-015 1.59028e-015 7.95139e-016 -2.5842e-015 0 4.77083e-015 -3.97569e-016 1.59028e-015 -7.95139e-016 -3.97569e-015 0 -1.59028e-015 -2.5842e-015 0 4.77083e-015 -3.97569e-016 1.59028e-015 -7.95139e-016 -3.97569e-015 0 -1.59028e-015 -3.37934e-015 1.59028e-015 7.95139e-016 -2.5842e-015 0 4.77083e-015 -3.97569e-016 1.59028e-015 -7.95139e-016 -3.97569e-015 0 -1.59028e-015 -2.5842e-015 0 4.77083e-015 -3.97569e-016 1.59028e-015 -7.95139e-016 -3.97569e-015 0 -1.59028e-015 2.03342 -0.0496424 1.30936e-005 4.61458 -0.299971 4.88292 -1.81691 0.991124 -13.0321 1.65003 0.662622 0.0344876 8.34435e-007 2.74259e-007 1.39793e-008 -8.18987e-007 -4.86729e-007 -2.36662e-009 8.34435e-007 2.74259e-007 1.39793e-008 -1.19271e-015 0 -0 8.34435e-007 2.74259e-007 1.39793e-008 -8.18987e-007 -4.86729e-007 -2.36662e-009 8.34435e-007 2.74259e-007 1.39793e-008 8.34435e-007 2.74259e-007 1.39793e-008 -8.18987e-007 -4.86729e-007 -2.36662e-009 8.34435e-007 2.74259e-007 1.39793e-008 -1.19271e-015 0 -0 8.34435e-007 2.74259e-007 1.39793e-008 -8.18987e-007 -4.86729e-007 -2.36662e-009 8.34435e-007 2.74259e-007 1.39793e-008 8.34435e-007 2.74259e-007 1.39793e-008 -8.18987e-007 -4.86729e-007 -2.36662e-009 8.34435e-007 2.74259e-007 1.39793e-008 -3.5225 -14.8232 1.84272 -0.630566 37.2134 1.36702 6.99036 15.8289 -0.473704 3.52147 -14.7668 -1.84684 0.628563 37.1571 -1.36197 -6.99155 15.8289 0.473362 
4.41908 57.0095 -22.2872 0 0 -0 -0.00510037 0.862971 -0.0469764 -0.00949464 1.72595 -0.0938919 -0.00949464 1.72594 -0.0938918 -0.0892524 -0.043491 0.100526 4.97168e-010 1.31325e-011 -1.33309e-008 -4.19932 -0.102005 7.94223e-007 -10.9552 -0.723065 -14.6939 -8.63001 -32.4252 6.37471 -3.41622 1.34953 -0.0221387 -0 0 3.18055e-015 -1.69537e-006 1.94651e-006 -7.13722e-007 -3.22059e-006 1.53833e-006 1.23703e-006 -1.76556e-031 3.18055e-015 3.18055e-015 3.18055e-015 -6.36111e-015 7.95139e-015 -1.69537e-006 1.94651e-006 -7.13722e-007 -3.22059e-006 1.53833e-006 1.23703e-006 3.18055e-015 -6.36111e-015 7.95139e-015 -1.69537e-006 1.94651e-006 -7.13722e-007 -3.22059e-006 1.53833e-006 1.23703e-006 -1.76556e-031 3.18055e-015 3.18055e-015 3.18055e-015 -6.36111e-015 7.95139e-015 -1.69537e-006 1.94651e-006 -7.13722e-007 -3.22059e-006 1.53833e-006 1.23703e-006 3.18055e-015 -6.36111e-015 7.95139e-015 -1.69537e-006 1.94651e-006 -7.13722e-007 -3.22059e-006 1.53833e-006 1.23703e-006 4.19748 -0.102133 -5.12845e-006 11.1576 -0.669201 15.4279 -1.87426 0.757797 -8.98083 3.40603 1.3686 0.0502129 -1.77385e-006 -8.59119e-008 1.68136e-006 1.30987e-007 1.01435e-006 -1.87309e-006 -1.77385e-006 -8.59119e-008 1.68136e-006 -1.68967e-015 7.95139e-016 -0 -1.77385e-006 -8.59119e-008 1.68136e-006 1.30987e-007 1.01435e-006 -1.87309e-006 -1.77385e-006 -8.59119e-008 1.68136e-006 -1.77385e-006 -8.59119e-008 1.68136e-006 1.30987e-007 1.01435e-006 -1.87309e-006 -1.77385e-006 -8.59119e-008 1.68136e-006 -1.68967e-015 7.95139e-016 -0 -1.77385e-006 -8.59119e-008 1.68136e-006 1.30987e-007 1.01435e-006 -1.87309e-006 -1.77385e-006 -8.59119e-008 1.68136e-006 -1.77385e-006 -8.59119e-008 1.68136e-006 1.30987e-007 1.01435e-006 -1.87309e-006 -1.77385e-006 -8.59119e-008 1.68136e-006 -1.97635 -29.9846 4.30881 3.47802 75.7159 -3.19609 8.60882 33.4333 1.40098 1.97343 -29.9715 -4.31257 -3.48266 75.7024 3.20021 -8.61113 33.4334 -1.40166 
6.5139 39.7805 -34.4504 0 0 -0 -0.00592916 1.27207 -0.0694005 -0.0103205 2.54414 -0.138721 -0.0103205 2.54414 -0.138721 -0.112934 -0.0549598 0.12723 2.67026e-008 -4.26206e-007 1.42681e-008 -6.19005 -0.150392 1.53965e-006 -17.0603 -1.06251 -24.3916 -18.7163 -46.93 -2.52047 -5.03629 1.98923 -0.00449228 2.47902e-006 1.15956e-006 -1.252e-006 5.54342e-007 -7.43139e-007 1.42801e-006 -5.54342e-007 7.43139e-007 -1.42801e-006 3.18055e-015 3.18055e-015 3.18055e-015 2.47902e-006 1.15956e-006 -1.252e-006 5.54342e-007 -7.43139e-007 1.42801e-006 -5.54342e-007 7.43139e-007 -1.42801e-006 2.47902e-006 1.15956e-006 -1.252e-006 5.54342e-007 -7.43139e-007 1.42801e-006 -5.54342e-007 7.43139e-007 -1.42801e-006 3.18055e-015 3.18055e-015 3.18055e-015 2.47902e-006 1.15956e-006 -1.252e-006 5.54342e-007 -7.43139e-007 1.42801e-006 -5.54342e-007 7.43139e-007 -1.42801e-006 2.47902e-006 1.15956e-006 -1.252e-006 5.54342e-007 -7.43139e-007 1.42801e-006 -5.54342e-007 7.43139e-007 -1.42801e-006 6.18735 -0.150581 -4.73015e-006 17.2498 -0.975412 25.1256 -1.91232 0.540167 -5.25602 5.02104 2.01789 0.0455622 2.69582e-007 -1.5724e-007 -6.34683e-006 2.21858e-007 2.28568e-007 -6.01244e-007 1.76994e-006 -3.44977e-007 -5.17119e-006 2.78299e-015 0 3.18055e-015 2.69582e-007 -1.5724e-007 -6.34683e-006 2.21858e-007 2.28568e-007 -6.01244e-007 1.76994e-006 -3.44977e-007 -5.17119e-006 2.69582e-007 -1.5724e-007 -6.34683e-006 2.21858e-007 2.28568e-007 -6.01244e-007 1.76994e-006 -3.44977e-007 -5.17119e-006 2.78299e-015 0 3.18055e-015 2.69582e-007 -1.5724e-007 -6.34683e-006 2.21858e-007 2.28568e-007 -6.01244e-007 1.76994e-006 -3.44977e-007 -5.17119e-006 2.69582e-007 -1.5724e-007 -6.34683e-006 2.21858e-007 2.28568e-007 -6.01244e-007 1.76994e-006 -3.44977e-007 -5.17119e-006 -0.0412043 -44.7493 8.40901 170.018 68.4277 -168.018 9.17963 50.3602 3.33314 0.0362703 -44.7488 -8.41411 -170.017 68.4284 168.013 -9.1831 50.3602 -3.33405 
8.10435 26.8034 -43.8706 0 0 -0 -0.00587265 1.58266 -0.0864867 -0.00935969 3.16533 -0.17291 -0.00935968 3.16533 -0.17291 -0.044643 -0.0218061 0.0502631 6.65426e-009 2.20778e-011 4.58992e-010 -7.70152 -0.187115 3.03971e-006 -21.7429 -1.28809 -31.7563 -31.9035 -56.4898 -14.2065 -6.26693 2.47443 0.0209764 -1.01767e-006 3.43315e-006 6.38929e-007 0 0 -6.36111e-015 -4.98189e-006 -6.99361e-007 2.67194e-006 3.18055e-015 -3.18055e-015 3.18055e-015 -1.01767e-006 3.43315e-006 6.38929e-007 -1.05934e-030 -6.36111e-015 -9.54166e-015 -4.98189e-006 -6.99361e-007 2.67194e-006 -1.01767e-006 3.43315e-006 6.38929e-007 -1.05934e-030 -6.36111e-015 -9.54166e-015 -4.98189e-006 -6.99361e-007 2.67194e-006 3.18055e-015 -3.18055e-015 3.18055e-015 -1.01767e-006 3.43315e-006 6.38929e-007 -1.05934e-030 -6.36111e-015 -9.54166e-015 -4.98189e-006 -6.99361e-007 2.67194e-006 -1.01767e-006 3.43315e-006 6.38929e-007 -1.05934e-030 -6.36111e-015 -9.54166e-015 -4.98189e-006 -6.99361e-007 2.67194e-006 7.69815 -0.187349 -6.70257e-006 21.919 -1.17729 32.49 -1.93172 0.373534 -2.42812 6.24776 2.51063 0.0298174 2.96807e-006 -1.59439e-006 3.07019e-007 -3.00839e-007 -1.18823e-006 3.70377e-007 -2.00559e-007 -7.92156e-007 2.46918e-007 4.77083e-015 -1.59028e-015 -0 2.96807e-006 -1.59439e-006 3.07019e-007 -3.00839e-007 -1.18823e-006 3.70377e-007 -2.00559e-007 -7.92156e-007 2.46918e-007 2.96807e-006 -1.59439e-006 3.07019e-007 -3.00839e-007 -1.18823e-006 3.70377e-007 -2.00559e-007 -7.92156e-007 2.46918e-007 4.77083e-015 -1.59028e-015 -0 2.96807e-006 -1.59439e-006 3.07019e-007 -3.00839e-007 -1.18823e-006 3.70377e-007 -2.00559e-007 -7.92156e-007 2.46918e-007 2.96807e-006 -1.59439e-006 3.07019e-007 -3.00839e-007 -1.18823e-006 3.70377e-007 -2.00559e-007 -7.92156e-007 2.46918e-007 2.20876 -57.9348 15.811 171.975 41.2832 -166.301 5.5616 65.3982 8.93028 -2.21844 -57.9345 -15.8201 -171.977 41.2843 166.298 -5.56756 65.3983 -8.93023 
8.90847 20.5315 -48.6763 0 0 -0 -0.00561824 1.73971 -0.0951453 -0.0083504 3.47943 -0.190251 -0.0083504 3.47943 -0.190252 0.167776 0.0824373 -0.188012 -5.03468e-009 8.51253e-007 -8.78967e-010 -8.46577 -0.205702 1.84486e-006 -24.1244 -1.38937 -35.4807 -41.4618 -60.4289 -22.8076 -6.88945 2.71954 0.0378475 -3.18055e-015 1.27222e-014 -9.54166e-015 -7.18578e-007 1.03571e-006 -1.13657e-006 9.54166e-015 1.59028e-014 -6.36111e-015 -6.36111e-015 3.18055e-015 -6.36111e-015 3.18055e-015 1.27222e-014 -9.54166e-015 -7.18578e-007 1.03571e-006 -1.13657e-006 3.18055e-015 6.36111e-015 -9.54166e-015 3.18055e-015 1.27222e-014 -9.54166e-015 -7.18578e-007 1.03571e-006 -1.13657e-006 3.18055e-015 6.36111e-015 -9.54166e-015 -6.36111e-015 3.18055e-015 -6.36111e-015 3.18055e-015 1.27222e-014 -9.54166e-015 -7.18578e-007 1.03571e-006 -1.13657e-006 3.18055e-015 6.36111e-015 -9.54166e-015 3.18055e-015 1.27222e-014 -9.54166e-015 -7.18578e-007 1.03571e-006 -1.13657e-006 3.18055e-015 6.36111e-015 -9.54166e-015 8.46207 -0.205962 -3.25156e-006 24.2926 -1.26723 36.2143 -1.93839 0.288966 -0.998267 6.86826 2.75962 0.0177981 -3.68274e-006 -1.00952e-006 6.54667e-007 -3.68274e-006 -1.00952e-006 6.54667e-007 -3.33428e-006 1.53721e-007 2.47897e-007 -7.95139e-016 0 -0 -3.68274e-006 -1.00952e-006 6.54667e-007 -3.68274e-006 -1.00952e-006 6.54667e-007 -3.33428e-006 1.53721e-007 2.47897e-007 -3.68274e-006 -1.00952e-006 6.54667e-007 -3.68274e-006 -1.00952e-006 6.54667e-007 -3.33428e-006 1.53721e-007 2.47897e-007 -7.95139e-016 0 -0 -3.68274e-006 -1.00952e-006 6.54667e-007 -3.68274e-006 -1.00952e-006 6.54667e-007 -3.33428e-006 1.53721e-007 2.47897e-007 -3.68274e-006 -1.00952e-006 6.54667e-007 -3.68274e-006 -1.00952e-006 6.54667e-007 -3.33428e-006 1.53721e-007 2.47897e-007 4.41762 -67.2129 25.2811 171.896 27.3871 -161.597 -7.56429 75.4392 23.071 -4.41646 -67.2034 -25.2812 -171.9 27.3997 161.59 7.55124 75.4397 -23.0659 
